<mxfile host="app.diagrams.net" modified="2022-10-01T23:46:29.715Z" agent="5.0 (Macintosh; Intel Mac OS X 10_15_7) AppleWebKit/537.36 (KHTML, like Gecko) Chrome/105.0.0.0 Safari/537.36" etag="c1paT_TqMt6X6qGDZdnn" version="20.2.5" type="github">
  <diagram name="Page-1" id="e7e014a7-5840-1c2e-5031-d8a46d1fe8dd">
    <mxGraphModel dx="1720" dy="1020" grid="1" gridSize="10" guides="1" tooltips="1" connect="1" arrows="1" fold="1" page="1" pageScale="1" pageWidth="1169" pageHeight="826" background="none" math="0" shadow="0">
      <root>
        <mxCell id="0" />
        <mxCell id="1" parent="0" />
        <mxCell id="2" value="Usuario" style="swimlane;whiteSpace=wrap" parent="1" vertex="1">
          <mxGeometry x="164.5" y="128" width="280" height="492" as="geometry" />
        </mxCell>
        <mxCell id="5" value="" style="ellipse;shape=startState;fillColor=#000000;strokeColor=#ff0000;" parent="2" vertex="1">
          <mxGeometry x="100" y="40" width="30" height="30" as="geometry" />
        </mxCell>
        <mxCell id="6" value="" style="edgeStyle=elbowEdgeStyle;elbow=horizontal;verticalAlign=bottom;endArrow=open;endSize=8;strokeColor=#FF0000;endFill=1;rounded=0" parent="2" source="5" target="7" edge="1">
          <mxGeometry x="100" y="40" as="geometry">
            <mxPoint x="115" y="110" as="targetPoint" />
          </mxGeometry>
        </mxCell>
        <mxCell id="7" value="Ingresa al portal" style="" parent="2" vertex="1">
          <mxGeometry x="60" y="110" width="110" height="50" as="geometry" />
        </mxCell>
        <mxCell id="3" value="Portal SIPPASE" style="swimlane;whiteSpace=wrap" parent="1" vertex="1">
          <mxGeometry x="444.5" y="128" width="280" height="492" as="geometry" />
        </mxCell>
        <mxCell id="15" value="ingresa a la &#xa;seccion de ayuda" style="" parent="3" vertex="1">
          <mxGeometry x="85.5" y="110" width="110" height="50" as="geometry" />
        </mxCell>
        <mxCell id="4" value="Modulo de ayuda" style="swimlane;whiteSpace=wrap" parent="1" vertex="1">
          <mxGeometry x="724.5" y="128" width="280" height="492" as="geometry" />
        </mxCell>
        <mxCell id="tx-Aktgo9ccaCD24TlIo-47" value="Se espera que el&#xa;sistema grafique&#xa;un mapa con la&#xa;informacion de juzgados&#xa;y entidades" style="" vertex="1" parent="4">
          <mxGeometry x="85.5" y="95" width="154.5" height="88" as="geometry" />
        </mxCell>
        <mxCell id="tx-Aktgo9ccaCD24TlIo-52" value="Se grafica el mapa&#xa;con la informaciÃ³n de la&#xa;BD" style="" vertex="1" parent="4">
          <mxGeometry x="85.5" y="259" width="154.5" height="88" as="geometry" />
        </mxCell>
        <mxCell id="tx-Aktgo9ccaCD24TlIo-45" value="" style="ellipse;shape=endState;fillColor=#000000;strokeColor=#ff0000" vertex="1" parent="4">
          <mxGeometry x="141.5" y="432" width="30" height="30" as="geometry" />
        </mxCell>
        <mxCell id="tx-Aktgo9ccaCD24TlIo-57" value="" style="endArrow=classic;html=1;rounded=0;exitX=0.461;exitY=0.985;exitDx=0;exitDy=0;exitPerimeter=0;" edge="1" parent="4" source="tx-Aktgo9ccaCD24TlIo-52" target="tx-Aktgo9ccaCD24TlIo-45">
          <mxGeometry width="50" height="50" relative="1" as="geometry">
            <mxPoint x="25.5" y="392.14" as="sourcePoint" />
            <mxPoint x="156.5999999999999" y="429.0000000000002" as="targetPoint" />
          </mxGeometry>
        </mxCell>
        <mxCell id="tx-Aktgo9ccaCD24TlIo-41" value="" style="endArrow=classic;html=1;rounded=0;exitX=0.986;exitY=0.54;exitDx=0;exitDy=0;exitPerimeter=0;entryX=-0.018;entryY=0.5;entryDx=0;entryDy=0;entryPerimeter=0;" edge="1" parent="1" source="7" target="15">
          <mxGeometry width="50" height="50" relative="1" as="geometry">
            <mxPoint x="380" y="270" as="sourcePoint" />
            <mxPoint x="470" y="263" as="targetPoint" />
          </mxGeometry>
        </mxCell>
        <mxCell id="tx-Aktgo9ccaCD24TlIo-42" value="Base de datos" style="swimlane;whiteSpace=wrap" vertex="1" parent="1">
          <mxGeometry x="1004.5" y="128" width="280" height="492" as="geometry" />
        </mxCell>
        <mxCell id="tx-Aktgo9ccaCD24TlIo-50" value="se consulta sobre&#xa;las direcciones" style="" vertex="1" parent="tx-Aktgo9ccaCD24TlIo-42">
          <mxGeometry x="85" y="110" width="110" height="50" as="geometry" />
        </mxCell>
        <mxCell id="tx-Aktgo9ccaCD24TlIo-53" value="Se procesa y&#xa;retorna los datos" style="" vertex="1" parent="tx-Aktgo9ccaCD24TlIo-42">
          <mxGeometry x="85" y="272" width="110" height="50" as="geometry" />
        </mxCell>
        <mxCell id="tx-Aktgo9ccaCD24TlIo-54" value="" style="endArrow=classic;html=1;rounded=0;exitX=0.464;exitY=1.07;exitDx=0;exitDy=0;exitPerimeter=0;entryX=0.464;entryY=0;entryDx=0;entryDy=0;entryPerimeter=0;" edge="1" parent="tx-Aktgo9ccaCD24TlIo-42" source="tx-Aktgo9ccaCD24TlIo-50" target="tx-Aktgo9ccaCD24TlIo-53">
          <mxGeometry width="50" height="50" relative="1" as="geometry">
            <mxPoint x="89.99649999999997" y="222.03999999999996" as="sourcePoint" />
            <mxPoint x="216.01" y="222" as="targetPoint" />
          </mxGeometry>
        </mxCell>
        <mxCell id="tx-Aktgo9ccaCD24TlIo-49" value="" style="endArrow=classic;html=1;rounded=0;exitX=1;exitY=0.53;exitDx=0;exitDy=0;exitPerimeter=0;entryX=-0.018;entryY=0.47;entryDx=0;entryDy=0;entryPerimeter=0;" edge="1" parent="1" source="15" target="tx-Aktgo9ccaCD24TlIo-47">
          <mxGeometry width="50" height="50" relative="1" as="geometry">
            <mxPoint x="660" y="370" as="sourcePoint" />
            <mxPoint x="710" y="320" as="targetPoint" />
          </mxGeometry>
        </mxCell>
        <mxCell id="tx-Aktgo9ccaCD24TlIo-51" value="" style="endArrow=classic;html=1;rounded=0;exitX=0.997;exitY=0.455;exitDx=0;exitDy=0;exitPerimeter=0;entryX=0.005;entryY=0.5;entryDx=0;entryDy=0;entryPerimeter=0;" edge="1" parent="1" source="tx-Aktgo9ccaCD24TlIo-47" target="tx-Aktgo9ccaCD24TlIo-50">
          <mxGeometry width="50" height="50" relative="1" as="geometry">
            <mxPoint x="970" y="290.14" as="sourcePoint" />
            <mxPoint x="1137.219" y="290" as="targetPoint" />
          </mxGeometry>
        </mxCell>
        <mxCell id="tx-Aktgo9ccaCD24TlIo-56" value="" style="endArrow=classic;html=1;rounded=0;exitX=-0.014;exitY=0.51;exitDx=0;exitDy=0;exitPerimeter=0;entryX=1.01;entryY=0.438;entryDx=0;entryDy=0;entryPerimeter=0;" edge="1" parent="1" source="tx-Aktgo9ccaCD24TlIo-53" target="tx-Aktgo9ccaCD24TlIo-52">
          <mxGeometry width="50" height="50" relative="1" as="geometry">
            <mxPoint x="1065.8899999999999" y="480.14" as="sourcePoint" />
            <mxPoint x="1233.109" y="480" as="targetPoint" />
          </mxGeometry>
        </mxCell>
      </root>
    </mxGraphModel>
  </diagram>
</mxfile>
